<svg width="48" height="48" viewBox="0 0 48 48" fill="none" xmlns="http://www.w3.org/2000/svg">
<g clip-path="url(#clip0_9_2)">
<path d="M48 0H0V48H48V0Z" fill="#F1CFC7"/>
<path d="M3.57006 40.7902C1.63006 40.7902 0.0600586 39.2202 0.0600586 37.2802V10.7302C0.0600586 8.79021 1.63006 7.22021 3.57006 7.22021C5.51006 7.22021 7.08006 8.79021 7.08006 10.7302V37.2802C7.08006 39.2202 5.51006 40.7902 3.57006 40.7902Z" fill="#1D2088"/>
<path d="M37.3801 46.8901H10.8301C8.89007 46.8901 7.32007 45.3201 7.32007 43.3801C7.32007 41.4401 8.89007 39.8701 10.8301 39.8701H37.3801C39.3201 39.8701 40.8901 41.4401 40.8901 43.3801C40.8901 45.3201 39.3201 46.8901 37.3801 46.8901Z" fill="#1D2088"/>
<path d="M37.3801 8.13011H10.8301C8.89007 8.13011 7.32007 6.56011 7.32007 4.62011C7.32007 2.68011 8.89007 1.11011 10.8301 1.11011H37.3801C39.3201 1.11011 40.8901 2.68011 40.8901 4.62011C40.8901 6.56011 39.3201 8.13011 37.3801 8.13011Z" fill="#1D2088"/>
<path d="M44.49 40.7902C42.55 40.7902 40.98 39.2202 40.98 37.2802V10.7302C40.98 8.79021 42.55 7.22021 44.49 7.22021C46.43 7.22021 48 8.79021 48 10.7302V37.2802C48 39.2202 46.43 40.7902 44.49 40.7902Z" fill="#1D2088"/>
</g>
<defs>
<clipPath id="clip0_9_2">
<rect width="48" height="48" fill="white"/>
</clipPath>
</defs>
</svg>
